<?xml version="1.0" encoding="utf-8"?>
<!-- Generator: Adobe Illustrator 16.0.0, SVG Export Plug-In . SVG Version: 6.00 Build 0)  -->
<!DOCTYPE svg PUBLIC "-//W3C//DTD SVG 1.1//EN" "http://www.w3.org/Graphics/SVG/1.1/DTD/svg11.dtd">
<svg version="1.1" id="Layer_1" focusable="false" xmlns="http://www.w3.org/2000/svg" xmlns:xlink="http://www.w3.org/1999/xlink"
	 x="0px" y="0px" width="154px" height="117px" viewBox="273.5 13 154 117" enable-background="new 273.5 13 154 117"
	 xml:space="preserve">
<path fill="#FFFFFF" d="M419.791,53.29c1.089-0.866,2.709-0.056,2.709,1.312v57.116c0,7.401-6.005,13.406-13.406,13.406H292.906
	c-7.401,0-13.406-6.005-13.406-13.406V54.63c0-1.396,1.592-2.178,2.709-1.312c6.256,4.86,14.552,11.032,43.04,31.728
	c5.893,4.302,15.836,13.351,25.751,13.294c9.971,0.084,20.109-9.16,25.779-13.294C405.268,64.35,413.534,58.149,419.791,53.29z
	 M351,89.375c6.479,0.111,15.809-8.155,20.5-11.562c37.063-26.896,39.884-29.243,48.431-35.946c1.62-1.257,2.569-3.212,2.569-5.279
	v-5.307c0-7.401-6.005-13.406-13.406-13.406H292.906c-7.401,0-13.406,6.005-13.406,13.406v5.307c0,2.067,0.95,3.994,2.569,5.279
	c8.547,6.675,11.368,9.049,48.43,35.946C335.192,81.22,344.521,89.486,351,89.375z"/>
</svg>
