<?xml version="1.0" encoding="utf-8"?>
<!-- Generator: Adobe Illustrator 16.0.0, SVG Export Plug-In . SVG Version: 6.00 Build 0)  -->
<!DOCTYPE svg PUBLIC "-//W3C//DTD SVG 1.1//EN" "http://www.w3.org/Graphics/SVG/1.1/DTD/svg11.dtd">
<svg version="1.1" id="Layer_1" focusable="false" xmlns="http://www.w3.org/2000/svg" xmlns:xlink="http://www.w3.org/1999/xlink"
	 x="0px" y="0px" width="136px" height="133px" viewBox="281.5 5 136 133" enable-background="new 281.5 5 136 133"
	 xml:space="preserve">
<path fill="#FFFFFF" d="M399.156,8.938h-98.312c-7.404,0-13.406,6.002-13.406,13.406v98.312c0,7.404,6.002,13.406,13.406,13.406
	h38.333V91.523h-17.596V71.5h17.596V56.239c0-17.358,10.334-26.947,26.162-26.947c7.58,0,15.507,1.352,15.507,1.352v17.037h-8.734
	c-8.604,0-11.289,5.34-11.289,10.817V71.5h19.212l-3.072,20.023h-16.14v42.539h38.335c7.403,0,13.405-6.002,13.405-13.406V22.344
	C412.562,14.939,406.561,8.938,399.156,8.938z"/>
</svg>
