<?xml version="1.0" encoding="utf-8"?>
<!-- Generator: Adobe Illustrator 16.0.0, SVG Export Plug-In . SVG Version: 6.00 Build 0)  -->
<!DOCTYPE svg PUBLIC "-//W3C//DTD SVG 1.1//EN" "http://www.w3.org/Graphics/SVG/1.1/DTD/svg11.dtd">
<svg version="1.1" id="Layer_1" focusable="false" xmlns="http://www.w3.org/2000/svg" xmlns:xlink="http://www.w3.org/1999/xlink"
	 x="0px" y="0px" width="136px" height="135px" viewBox="281.5 4 136 135" enable-background="new 281.5 4 136 135"
	 xml:space="preserve">
<path fill="#FFFFFF" d="M350.028,39.381c-17.763,0-32.091,14.328-32.091,32.091c0,17.762,14.328,32.09,32.091,32.09
	c17.763,0,32.091-14.328,32.091-32.09C382.119,53.709,367.791,39.381,350.028,39.381z M350.028,92.336
	c-11.479,0-20.863-9.357-20.863-20.864c0-11.507,9.356-20.864,20.863-20.864c11.507,0,20.865,9.356,20.865,20.864
	C370.893,82.979,361.507,92.336,350.028,92.336z M390.917,38.068c0,4.161-3.353,7.485-7.485,7.485c-4.16,0-7.483-3.352-7.483-7.485
	c0-4.134,3.352-7.485,7.483-7.485C387.564,30.583,390.917,33.935,390.917,38.068z M412.172,45.665
	c-0.476-10.027-2.766-18.908-10.111-26.226c-7.316-7.317-16.199-9.608-26.226-10.11c-10.334-0.586-41.308-0.586-51.642,0
	c-9.999,0.475-18.88,2.765-26.226,10.083c-7.345,7.317-9.607,16.199-10.11,26.226c-0.586,10.334-0.586,41.307,0,51.641
	c0.475,10.027,2.765,18.908,10.11,26.227c7.346,7.317,16.199,9.607,26.226,10.11c10.334,0.587,41.308,0.587,51.642,0
	c10.026-0.476,18.908-2.765,26.226-10.11c7.318-7.316,9.608-16.199,10.111-26.227C412.758,86.945,412.758,55.999,412.172,45.665z
	 M398.821,108.367c-2.18,5.475-6.396,9.691-11.898,11.898c-8.239,3.268-27.79,2.514-36.895,2.514s-28.684,0.726-36.895-2.514
	c-5.474-2.18-9.691-6.396-11.898-11.898c-3.268-8.239-2.514-27.79-2.514-36.895s-0.726-28.684,2.514-36.895
	c2.178-5.475,6.396-9.692,11.898-11.898c8.239-3.268,27.79-2.514,36.895-2.514s28.684-0.726,36.895,2.514
	c5.476,2.179,9.691,6.396,11.898,11.898c3.268,8.239,2.514,27.79,2.514,36.895S402.089,100.156,398.821,108.367z"/>
</svg>
