<?xml version="1.0" encoding="utf-8"?>
<!-- Generator: Adobe Illustrator 16.0.0, SVG Export Plug-In . SVG Version: 6.00 Build 0)  -->
<!DOCTYPE svg PUBLIC "-//W3C//DTD SVG 1.1//EN" "http://www.w3.org/Graphics/SVG/1.1/DTD/svg11.dtd">
<svg version="1.1" id="Layer_1" focusable="false" xmlns="http://www.w3.org/2000/svg" xmlns:xlink="http://www.w3.org/1999/xlink"
	 x="0px" y="0px" width="137px" height="135px" viewBox="281.5 3 137 135" enable-background="new 281.5 3 137 135"
	 xml:space="preserve">
<path fill="#FFFFFF" d="M403.625,8.938H296.347c-4.916,0-8.91,4.05-8.91,9.021v107.082c0,4.973,3.994,9.021,8.91,9.021h107.278
	c4.916,0,8.938-4.051,8.938-9.021V17.959C412.562,12.987,408.541,8.938,403.625,8.938z M325.254,116.188h-18.545V56.474h18.573
	v59.713H325.254z M315.981,48.318c-5.949,0-10.753-4.832-10.753-10.753s4.804-10.753,10.753-10.753
	c5.921,0,10.753,4.832,10.753,10.753C326.734,43.515,321.931,48.318,315.981,48.318z M394.771,116.188h-18.545V87.141
	c0-6.927-0.142-15.835-9.638-15.835c-9.663,0-11.144,7.541-11.144,15.333v29.549H336.9V56.474h17.792v8.156h0.252
	c2.485-4.692,8.547-9.636,17.567-9.636c18.769,0,22.261,12.373,22.261,28.46V116.188L394.771,116.188z"/>
</svg>
