<?xml version="1.0" encoding="utf-8"?>
<!-- Generator: Adobe Illustrator 24.0.1, SVG Export Plug-In . SVG Version: 6.00 Build 0)  -->
<svg version="1.1" xmlns="http://www.w3.org/2000/svg" xmlns:xlink="http://www.w3.org/1999/xlink" x="0px" y="0px"
	 viewBox="0 0 180 128.1" style="enable-background:new 0 0 180 128.1;" xml:space="preserve">
<style type="text/css">
	.st0{fill:#FFFFFF;}
	.st1{display:none;}
	.st2{display:inline;fill:#FFFFFF;}
</style>
<g id="Capa_1">
	<g>
		<g>
			<path class="st0" d="M161.6,1.5H18.5c-2.3,0-4.5,0.5-6.5,1.4l77.8,73.6l17.4-15.8c0,0,0,0,0,0c0,0,0,0,0,0l61-57.7
				C166.2,2,164,1.5,161.6,1.5z"/>
		</g>
	</g>
	<g>
		<g>
			<path class="st0" d="M175.3,9.8l-57.4,54.3l57.4,54.3c1-1.9,1.5-4,1.5-6.2V15.9C176.9,13.7,176.3,11.6,175.3,9.8z"/>
		</g>
	</g>
	<g>
		<g>
			<path class="st0" d="M4.7,9.8c-1,1.9-1.5,4-1.5,6.2v96.2c0,2.2,0.6,4.3,1.5,6.2l57.4-54.3L4.7,9.8z"/>
		</g>
	</g>
	<g>
		<g>
			<path class="st0" d="M110.7,70.9L93.3,86.7c-1,0.9-2.3,1.4-3.6,1.4s-2.6-0.5-3.6-1.4L69.3,70.9l-57.4,54.3c2,0.9,4.2,1.4,6.5,1.4
				h143.1c2.3,0,4.5-0.5,6.5-1.4L110.7,70.9z"/>
		</g>
	</g>
</g>
<g id="Layer_2" class="st1">
	<path class="st2" d="M143.1,0H35.8c-4.9,0-8.9,4.1-8.9,9v107.1c0,5,4,9,8.9,9h107.3c4.9,0,8.9-4.1,8.9-9V9C152.1,4,148,0,143.1,0z
		 M64.8,107.3H46.2V47.5h18.6L64.8,107.3L64.8,107.3L64.8,107.3z M55.5,39.4c-5.9,0-10.8-4.8-10.8-10.8s4.8-10.8,10.8-10.8
		c5.9,0,10.8,4.8,10.8,10.8C66.2,34.6,61.4,39.4,55.5,39.4z M134.3,107.3h-18.5v-29c0-6.9-0.1-15.8-9.6-15.8
		c-9.7,0-11.1,7.5-11.1,15.3v29.5H76.4V47.5h17.8v8.2h0.3c2.5-4.7,8.5-9.6,17.6-9.6c18.8,0,22.3,12.4,22.3,28.5L134.3,107.3
		L134.3,107.3z"/>
</g>
</svg>
