<?xml version="1.0" encoding="utf-8"?>
<!-- Generator: Adobe Illustrator 16.0.0, SVG Export Plug-In . SVG Version: 6.00 Build 0)  -->
<!DOCTYPE svg PUBLIC "-//W3C//DTD SVG 1.1//EN" "http://www.w3.org/Graphics/SVG/1.1/DTD/svg11.dtd">
<svg version="1.1" id="Layer_1" focusable="false" xmlns="http://www.w3.org/2000/svg" xmlns:xlink="http://www.w3.org/1999/xlink"
	 x="0px" y="0px" width="158px" height="143px" viewBox="268.5 0 158 143" enable-background="new 268.5 0 158 143"
	 xml:space="preserve">
<path fill="#FFFFFF" d="M419.16,131.92l4.146-29.521c0.448-3.207-1.477-6.291-4.537-7.312l-32.331-10.627
	c-2.829-0.932-5.96,0.127-7.622,2.6l-12.326,18.068c-22.217-8.15-41.499-24.098-53.617-44.989l15.654-15.276
	c2.144-2.094,2.645-5.334,1.238-7.958L313.684,6.91c-1.568-2.862-4.938-4.222-8.02-3.224l-28.352,9.21
	c-2.944,0.958-4.88,3.818-4.605,6.963c6.234,71.254,69.028,124.049,140.395,117.805C416.219,137.393,418.73,135.014,419.16,131.92z"
	/>
</svg>
