<?xml version="1.0" encoding="utf-8"?>
<!-- Generator: Adobe Illustrator 16.0.0, SVG Export Plug-In . SVG Version: 6.00 Build 0)  -->
<!DOCTYPE svg PUBLIC "-//W3C//DTD SVG 1.1//EN" "http://www.w3.org/Graphics/SVG/1.1/DTD/svg11.dtd">
<svg version="1.1" id="Layer_1" focusable="false" xmlns="http://www.w3.org/2000/svg" xmlns:xlink="http://www.w3.org/1999/xlink"
	 x="0px" y="0px" width="137px" height="134px" viewBox="280.5 4 137 134" enable-background="new 280.5 4 137 134"
	 xml:space="preserve">
<path fill="#FFFFFF" d="M399.156,8.938h-98.312c-7.401,0-13.406,6.005-13.406,13.406v98.312c0,7.4,6.005,13.406,13.406,13.406
	h98.312c7.4,0,13.406-6.006,13.406-13.406V22.344C412.562,14.942,406.558,8.938,399.156,8.938z M385.498,53.29
	c0.057,0.782,0.057,1.592,0.057,2.374c0,24.215-18.434,52.117-52.117,52.117c-10.39,0-20.025-3.018-28.125-8.213
	c1.48,0.168,2.905,0.225,4.413,0.225c8.574,0,16.45-2.904,22.734-7.82c-8.043-0.168-14.803-5.445-17.121-12.707
	c2.821,0.418,5.362,0.418,8.267-0.336c-8.379-1.703-14.663-9.078-14.663-17.987V60.72c2.43,1.369,5.279,2.207,8.267,2.318
	c-5.103-3.395-8.166-9.121-8.155-15.25c0-3.407,0.894-6.536,2.486-9.245c9.021,11.116,22.567,18.378,37.761,19.16
	c-2.598-12.429,6.703-22.511,17.875-22.511c5.278,0,10.026,2.207,13.378,5.781c4.135-0.782,8.1-2.318,11.619-4.413
	c-1.369,4.245-4.244,7.82-8.044,10.083c3.687-0.391,7.263-1.424,10.558-2.849C392.201,47.453,389.074,50.692,385.498,53.29z"/>
</svg>
