<?xml version="1.0" encoding="utf-8"?>
<!-- Generator: Adobe Illustrator 24.0.1, SVG Export Plug-In . SVG Version: 6.00 Build 0)  -->
<svg version="1.1" id="Layer_1" xmlns="http://www.w3.org/2000/svg" xmlns:xlink="http://www.w3.org/1999/xlink" x="0px" y="0px"
	 viewBox="0 0 181.8 134" style="enable-background:new 0 0 181.8 134;" xml:space="preserve">
<style type="text/css">
	.st0{fill:#FFFFFF;}
</style>
<g id="XMLID_822_">
	<path id="XMLID_823_" class="st0" d="M171.1,15.2c-6.3-7.6-17.8-10.7-39.9-10.7H50.9c-22.6,0-34.4,3.3-40.6,11.4
		c-6.1,7.9-6.1,19.6-6.1,35.7v30.8c0,31.3,7.2,47.2,46.7,47.2h80.2c19.2,0,29.8-2.7,36.7-9.5c7-6.9,10.1-18.2,10.1-37.7V51.6
		C177.8,34.6,177.4,22.8,171.1,15.2z M115.7,71.2L79.2,90.7c-0.8,0.4-1.7,0.7-2.6,0.7c-1,0-2-0.3-2.9-0.8c-1.7-1-2.7-2.9-2.7-4.9
		V46.8c0-2,1-3.9,2.7-4.9c1.7-1,3.8-1.1,5.5-0.2l36.4,19.4c1.9,1,3,2.9,3,5.1C118.7,68.3,117.5,70.3,115.7,71.2z"/>
</g>
</svg>
